<mxfile host="app.diagrams.net" modified="2023-05-30T00:42:06.122Z" agent="Mozilla/5.0 (Macintosh; Intel Mac OS X 10_15_7) AppleWebKit/537.36 (KHTML, like Gecko) Chrome/113.0.0.0 Safari/537.36" etag="zI2nTA0HW1KrQU5bkFif" version="21.3.5" type="github">
  <diagram name="第 1 页" id="nqhcbMI4rDcaPDMCXxw6">
    <mxGraphModel dx="1026" dy="595" grid="1" gridSize="10" guides="1" tooltips="1" connect="1" arrows="1" fold="1" page="1" pageScale="1" pageWidth="980" pageHeight="1390" math="0" shadow="0">
      <root>
        <mxCell id="0" />
        <mxCell id="1" parent="0" />
        <mxCell id="cjVjFdAtE-p9HjNd99h4-24" value="" style="edgeStyle=orthogonalEdgeStyle;rounded=1;orthogonalLoop=1;jettySize=auto;html=1;labelBackgroundColor=none;fontColor=default;labelBorderColor=none;strokeColor=#A8201A;" edge="1" parent="1" source="cjVjFdAtE-p9HjNd99h4-25" target="cjVjFdAtE-p9HjNd99h4-32">
          <mxGeometry relative="1" as="geometry" />
        </mxCell>
        <mxCell id="cjVjFdAtE-p9HjNd99h4-25" value="组包任务开始" style="strokeWidth=1;html=1;shape=mxgraph.flowchart.start_1;whiteSpace=wrap;labelBackgroundColor=none;rounded=1;labelBorderColor=none;fillColor=#FAE5C7;strokeColor=#0F8B8D;fontColor=#143642;" vertex="1" parent="1">
          <mxGeometry x="450" y="50" width="100" height="60" as="geometry" />
        </mxCell>
        <mxCell id="cjVjFdAtE-p9HjNd99h4-26" value="" style="edgeStyle=orthogonalEdgeStyle;rounded=1;orthogonalLoop=1;jettySize=auto;html=1;labelBackgroundColor=none;fontColor=default;labelBorderColor=none;strokeColor=#A8201A;" edge="1" parent="1" source="cjVjFdAtE-p9HjNd99h4-30" target="cjVjFdAtE-p9HjNd99h4-41">
          <mxGeometry relative="1" as="geometry" />
        </mxCell>
        <mxCell id="cjVjFdAtE-p9HjNd99h4-27" value="成功" style="edgeLabel;html=1;align=center;verticalAlign=middle;resizable=0;points=[];labelBackgroundColor=none;rounded=1;labelBorderColor=none;fontColor=#143642;" vertex="1" connectable="0" parent="cjVjFdAtE-p9HjNd99h4-26">
          <mxGeometry x="-0.4" relative="1" as="geometry">
            <mxPoint y="-5" as="offset" />
          </mxGeometry>
        </mxCell>
        <mxCell id="cjVjFdAtE-p9HjNd99h4-78" value="" style="edgeStyle=orthogonalEdgeStyle;rounded=1;orthogonalLoop=1;jettySize=auto;html=1;endArrow=none;endFill=0;labelBackgroundColor=none;strokeColor=#A8201A;fontColor=default;" edge="1" parent="1" source="cjVjFdAtE-p9HjNd99h4-30">
          <mxGeometry relative="1" as="geometry">
            <mxPoint x="670" y="380" as="targetPoint" />
          </mxGeometry>
        </mxCell>
        <mxCell id="cjVjFdAtE-p9HjNd99h4-79" value="失败" style="edgeLabel;html=1;align=center;verticalAlign=middle;resizable=0;points=[];rounded=1;labelBackgroundColor=none;fontColor=#143642;" vertex="1" connectable="0" parent="cjVjFdAtE-p9HjNd99h4-78">
          <mxGeometry x="-0.2365" relative="1" as="geometry">
            <mxPoint as="offset" />
          </mxGeometry>
        </mxCell>
        <mxCell id="cjVjFdAtE-p9HjNd99h4-30" value="获取组包任务锁" style="rhombus;whiteSpace=wrap;html=1;strokeWidth=1;labelBackgroundColor=none;rounded=1;labelBorderColor=none;fillColor=#FAE5C7;strokeColor=#0F8B8D;fontColor=#143642;" vertex="1" parent="1">
          <mxGeometry x="450" y="340" width="100" height="80" as="geometry" />
        </mxCell>
        <mxCell id="cjVjFdAtE-p9HjNd99h4-31" value="" style="edgeStyle=orthogonalEdgeStyle;rounded=1;orthogonalLoop=1;jettySize=auto;html=1;labelBackgroundColor=none;fontColor=default;labelBorderColor=none;strokeColor=#A8201A;" edge="1" parent="1" source="cjVjFdAtE-p9HjNd99h4-32" target="cjVjFdAtE-p9HjNd99h4-37">
          <mxGeometry relative="1" as="geometry" />
        </mxCell>
        <mxCell id="cjVjFdAtE-p9HjNd99h4-32" value="查询待组包的资金流水，状态为[04]" style="whiteSpace=wrap;html=1;strokeWidth=1;labelBackgroundColor=none;rounded=1;labelBorderColor=none;fillColor=#FAE5C7;strokeColor=#0F8B8D;fontColor=#143642;" vertex="1" parent="1">
          <mxGeometry x="440" y="140" width="120" height="60" as="geometry" />
        </mxCell>
        <mxCell id="cjVjFdAtE-p9HjNd99h4-33" value="" style="edgeStyle=orthogonalEdgeStyle;rounded=1;orthogonalLoop=1;jettySize=auto;html=1;labelBackgroundColor=none;fontColor=default;labelBorderColor=none;strokeColor=#A8201A;" edge="1" parent="1" source="cjVjFdAtE-p9HjNd99h4-37" target="cjVjFdAtE-p9HjNd99h4-30">
          <mxGeometry relative="1" as="geometry" />
        </mxCell>
        <mxCell id="cjVjFdAtE-p9HjNd99h4-34" value="否" style="edgeLabel;html=1;align=center;verticalAlign=middle;resizable=0;points=[];labelBackgroundColor=none;rounded=1;labelBorderColor=none;fontColor=#143642;" vertex="1" connectable="0" parent="cjVjFdAtE-p9HjNd99h4-33">
          <mxGeometry x="-0.28" y="-2" relative="1" as="geometry">
            <mxPoint as="offset" />
          </mxGeometry>
        </mxCell>
        <mxCell id="cjVjFdAtE-p9HjNd99h4-35" value="" style="edgeStyle=orthogonalEdgeStyle;rounded=1;orthogonalLoop=1;jettySize=auto;html=1;entryX=0.5;entryY=0;entryDx=0;entryDy=0;entryPerimeter=0;labelBackgroundColor=none;fontColor=default;labelBorderColor=none;strokeColor=#A8201A;" edge="1" parent="1" source="cjVjFdAtE-p9HjNd99h4-37" target="cjVjFdAtE-p9HjNd99h4-73">
          <mxGeometry relative="1" as="geometry">
            <mxPoint x="670" y="960" as="targetPoint" />
            <Array as="points">
              <mxPoint x="670" y="260" />
              <mxPoint x="670" y="1380" />
              <mxPoint x="500" y="1380" />
            </Array>
          </mxGeometry>
        </mxCell>
        <mxCell id="cjVjFdAtE-p9HjNd99h4-36" value="是" style="edgeLabel;html=1;align=center;verticalAlign=middle;resizable=0;points=[];labelBackgroundColor=none;rounded=1;labelBorderColor=none;fontColor=#143642;" vertex="1" connectable="0" parent="cjVjFdAtE-p9HjNd99h4-35">
          <mxGeometry x="-0.8784" y="-1" relative="1" as="geometry">
            <mxPoint x="-47" y="-1" as="offset" />
          </mxGeometry>
        </mxCell>
        <mxCell id="cjVjFdAtE-p9HjNd99h4-37" value="待组包流水是否为空" style="rhombus;whiteSpace=wrap;html=1;strokeWidth=1;labelBackgroundColor=none;rounded=1;labelBorderColor=none;fillColor=#FAE5C7;strokeColor=#0F8B8D;fontColor=#143642;" vertex="1" parent="1">
          <mxGeometry x="450" y="220" width="100" height="80" as="geometry" />
        </mxCell>
        <mxCell id="cjVjFdAtE-p9HjNd99h4-38" value="" style="edgeStyle=orthogonalEdgeStyle;rounded=1;orthogonalLoop=1;jettySize=auto;html=1;labelBackgroundColor=none;fontColor=default;labelBorderColor=none;strokeColor=#A8201A;" edge="1" parent="1" source="cjVjFdAtE-p9HjNd99h4-39" target="cjVjFdAtE-p9HjNd99h4-48">
          <mxGeometry relative="1" as="geometry" />
        </mxCell>
        <mxCell id="cjVjFdAtE-p9HjNd99h4-39" value="资金流水待组包[04]更新为组包中[05]" style="whiteSpace=wrap;html=1;strokeWidth=1;labelBackgroundColor=none;rounded=1;labelBorderColor=none;fillColor=#FAE5C7;strokeColor=#0F8B8D;fontColor=#143642;" vertex="1" parent="1">
          <mxGeometry x="440" y="650" width="120" height="60" as="geometry" />
        </mxCell>
        <mxCell id="cjVjFdAtE-p9HjNd99h4-40" value="" style="edgeStyle=orthogonalEdgeStyle;rounded=1;orthogonalLoop=1;jettySize=auto;html=1;labelBackgroundColor=none;fontColor=default;labelBorderColor=none;strokeColor=#A8201A;" edge="1" parent="1" source="cjVjFdAtE-p9HjNd99h4-41" target="cjVjFdAtE-p9HjNd99h4-46">
          <mxGeometry relative="1" as="geometry" />
        </mxCell>
        <mxCell id="cjVjFdAtE-p9HjNd99h4-41" value="查询待组包的资金流水，状态为[04]" style="whiteSpace=wrap;html=1;strokeWidth=1;labelBackgroundColor=none;rounded=1;labelBorderColor=none;fillColor=#FAE5C7;strokeColor=#0F8B8D;fontColor=#143642;" vertex="1" parent="1">
          <mxGeometry x="440" y="450" width="120" height="60" as="geometry" />
        </mxCell>
        <mxCell id="cjVjFdAtE-p9HjNd99h4-42" value="" style="edgeStyle=orthogonalEdgeStyle;rounded=1;orthogonalLoop=1;jettySize=auto;html=1;labelBackgroundColor=none;fontColor=default;labelBorderColor=none;strokeColor=#A8201A;" edge="1" parent="1" source="cjVjFdAtE-p9HjNd99h4-46" target="cjVjFdAtE-p9HjNd99h4-39">
          <mxGeometry relative="1" as="geometry" />
        </mxCell>
        <mxCell id="cjVjFdAtE-p9HjNd99h4-43" value="否" style="edgeLabel;html=1;align=center;verticalAlign=middle;resizable=0;points=[];labelBackgroundColor=none;rounded=1;labelBorderColor=none;fontColor=#143642;" vertex="1" connectable="0" parent="cjVjFdAtE-p9HjNd99h4-42">
          <mxGeometry x="-0.3" relative="1" as="geometry">
            <mxPoint y="6" as="offset" />
          </mxGeometry>
        </mxCell>
        <mxCell id="cjVjFdAtE-p9HjNd99h4-44" value="" style="edgeStyle=orthogonalEdgeStyle;rounded=1;orthogonalLoop=1;jettySize=auto;html=1;endArrow=none;endFill=0;labelBackgroundColor=none;fontColor=default;labelBorderColor=none;strokeColor=#A8201A;" edge="1" parent="1" source="cjVjFdAtE-p9HjNd99h4-46">
          <mxGeometry relative="1" as="geometry">
            <mxPoint x="500" y="1290" as="targetPoint" />
            <Array as="points">
              <mxPoint x="630" y="570" />
              <mxPoint x="630" y="1290" />
              <mxPoint x="560" y="1290" />
            </Array>
          </mxGeometry>
        </mxCell>
        <mxCell id="cjVjFdAtE-p9HjNd99h4-45" value="是" style="edgeLabel;html=1;align=center;verticalAlign=middle;resizable=0;points=[];labelBackgroundColor=none;rounded=1;labelBorderColor=none;fontColor=#143642;" vertex="1" connectable="0" parent="cjVjFdAtE-p9HjNd99h4-44">
          <mxGeometry x="-0.9244" relative="1" as="geometry">
            <mxPoint as="offset" />
          </mxGeometry>
        </mxCell>
        <mxCell id="cjVjFdAtE-p9HjNd99h4-46" value="待组包流水是否为空" style="rhombus;whiteSpace=wrap;html=1;strokeWidth=1;labelBackgroundColor=none;rounded=1;labelBorderColor=none;fillColor=#FAE5C7;strokeColor=#0F8B8D;fontColor=#143642;" vertex="1" parent="1">
          <mxGeometry x="450" y="530" width="100" height="80" as="geometry" />
        </mxCell>
        <mxCell id="cjVjFdAtE-p9HjNd99h4-47" value="" style="edgeStyle=orthogonalEdgeStyle;rounded=1;orthogonalLoop=1;jettySize=auto;html=1;labelBackgroundColor=none;fontColor=default;labelBorderColor=none;strokeColor=#A8201A;" edge="1" parent="1" source="cjVjFdAtE-p9HjNd99h4-48" target="cjVjFdAtE-p9HjNd99h4-50">
          <mxGeometry relative="1" as="geometry" />
        </mxCell>
        <mxCell id="cjVjFdAtE-p9HjNd99h4-48" value="剔除更新失败的流水" style="whiteSpace=wrap;html=1;strokeWidth=1;labelBackgroundColor=none;rounded=1;labelBorderColor=none;fillColor=#FAE5C7;strokeColor=#0F8B8D;fontColor=#143642;" vertex="1" parent="1">
          <mxGeometry x="440" y="740" width="120" height="60" as="geometry" />
        </mxCell>
        <mxCell id="cjVjFdAtE-p9HjNd99h4-49" value="" style="edgeStyle=orthogonalEdgeStyle;rounded=1;orthogonalLoop=1;jettySize=auto;html=1;labelBackgroundColor=none;fontColor=default;labelBorderColor=none;strokeColor=#A8201A;" edge="1" parent="1" source="cjVjFdAtE-p9HjNd99h4-50" target="cjVjFdAtE-p9HjNd99h4-56">
          <mxGeometry relative="1" as="geometry" />
        </mxCell>
        <mxCell id="cjVjFdAtE-p9HjNd99h4-50" value="根据商户号、通道ID、组包大小 进行拆包（组包大小默认值为100，可配置）" style="whiteSpace=wrap;html=1;strokeWidth=1;labelBackgroundColor=none;rounded=1;labelBorderColor=none;fillColor=#FAE5C7;strokeColor=#0F8B8D;fontColor=#143642;" vertex="1" parent="1">
          <mxGeometry x="440" y="822.5" width="120" height="60" as="geometry" />
        </mxCell>
        <mxCell id="cjVjFdAtE-p9HjNd99h4-51" value="" style="strokeWidth=1;html=1;shape=mxgraph.flowchart.annotation_2;align=left;labelPosition=right;pointerEvents=1;labelBackgroundColor=none;rounded=1;labelBorderColor=none;fillColor=#FAE5C7;strokeColor=#0F8B8D;fontColor=#143642;" vertex="1" parent="1">
          <mxGeometry x="380" y="740" width="50" height="60" as="geometry" />
        </mxCell>
        <mxCell id="cjVjFdAtE-p9HjNd99h4-52" value="任务锁失效的情况下，可以避免重复组包" style="text;html=1;strokeColor=none;fillColor=none;align=center;verticalAlign=middle;whiteSpace=wrap;rounded=1;fontSize=12;labelBackgroundColor=none;labelBorderColor=none;fontColor=#143642;" vertex="1" parent="1">
          <mxGeometry x="290" y="747.5" width="80" height="45" as="geometry" />
        </mxCell>
        <mxCell id="cjVjFdAtE-p9HjNd99h4-53" value="" style="strokeWidth=1;html=1;shape=mxgraph.flowchart.annotation_2;align=left;labelPosition=right;pointerEvents=1;labelBackgroundColor=none;rounded=1;labelBorderColor=none;fillColor=#FAE5C7;strokeColor=#0F8B8D;fontColor=#143642;" vertex="1" parent="1">
          <mxGeometry x="380" y="822.5" width="50" height="60" as="geometry" />
        </mxCell>
        <mxCell id="cjVjFdAtE-p9HjNd99h4-54" value="Map存储，key为商户号+通道ID,value为List&amp;lt;List&amp;gt;结构，存储流水列表" style="text;html=1;strokeColor=none;fillColor=none;align=center;verticalAlign=middle;whiteSpace=wrap;rounded=1;fontSize=12;labelBackgroundColor=none;labelBorderColor=none;fontColor=#143642;" vertex="1" parent="1">
          <mxGeometry x="280" y="830" width="100" height="45" as="geometry" />
        </mxCell>
        <mxCell id="cjVjFdAtE-p9HjNd99h4-55" value="" style="edgeStyle=orthogonalEdgeStyle;rounded=1;orthogonalLoop=1;jettySize=auto;html=1;labelBackgroundColor=none;fontColor=default;labelBorderColor=none;strokeColor=#A8201A;" edge="1" parent="1" source="cjVjFdAtE-p9HjNd99h4-56" target="cjVjFdAtE-p9HjNd99h4-63">
          <mxGeometry relative="1" as="geometry" />
        </mxCell>
        <mxCell id="cjVjFdAtE-p9HjNd99h4-56" value="组装批扣交易报文" style="whiteSpace=wrap;html=1;strokeWidth=1;labelBackgroundColor=none;rounded=1;labelBorderColor=none;fillColor=#FAE5C7;strokeColor=#0F8B8D;fontColor=#143642;" vertex="1" parent="1">
          <mxGeometry x="440" y="910" width="120" height="60" as="geometry" />
        </mxCell>
        <mxCell id="cjVjFdAtE-p9HjNd99h4-57" value="" style="strokeWidth=1;html=1;shape=mxgraph.flowchart.annotation_2;align=left;labelPosition=right;pointerEvents=1;labelBackgroundColor=none;rounded=1;labelBorderColor=none;fillColor=#FAE5C7;strokeColor=#0F8B8D;fontColor=#143642;" vertex="1" parent="1">
          <mxGeometry x="370" y="170" width="50" height="510" as="geometry" />
        </mxCell>
        <mxCell id="cjVjFdAtE-p9HjNd99h4-58" value="大部分情况待组包流水都是空，不需要竞争锁，提升任务性能" style="text;html=1;strokeColor=none;fillColor=none;align=center;verticalAlign=middle;whiteSpace=wrap;rounded=1;fontSize=12;labelBackgroundColor=none;labelBorderColor=none;fontColor=#143642;" vertex="1" parent="1">
          <mxGeometry x="280" y="405" width="80" height="45" as="geometry" />
        </mxCell>
        <mxCell id="cjVjFdAtE-p9HjNd99h4-59" value="" style="edgeStyle=orthogonalEdgeStyle;rounded=1;orthogonalLoop=1;jettySize=auto;html=1;labelBackgroundColor=none;fontColor=default;labelBorderColor=none;strokeColor=#A8201A;" edge="1" parent="1" source="cjVjFdAtE-p9HjNd99h4-63" target="cjVjFdAtE-p9HjNd99h4-64">
          <mxGeometry relative="1" as="geometry">
            <Array as="points">
              <mxPoint x="340" y="1040" />
            </Array>
          </mxGeometry>
        </mxCell>
        <mxCell id="cjVjFdAtE-p9HjNd99h4-60" value="失败" style="edgeLabel;html=1;align=center;verticalAlign=middle;resizable=0;points=[];labelBackgroundColor=none;rounded=1;labelBorderColor=none;fontColor=#143642;" vertex="1" connectable="0" parent="cjVjFdAtE-p9HjNd99h4-59">
          <mxGeometry x="0.1143" y="-1" relative="1" as="geometry">
            <mxPoint x="49" y="1" as="offset" />
          </mxGeometry>
        </mxCell>
        <mxCell id="cjVjFdAtE-p9HjNd99h4-61" value="" style="edgeStyle=orthogonalEdgeStyle;rounded=1;orthogonalLoop=1;jettySize=auto;html=1;labelBackgroundColor=none;fontColor=default;labelBorderColor=none;strokeColor=#A8201A;" edge="1" parent="1" source="cjVjFdAtE-p9HjNd99h4-66">
          <mxGeometry relative="1" as="geometry">
            <mxPoint x="500" y="1180" as="targetPoint" />
          </mxGeometry>
        </mxCell>
        <mxCell id="cjVjFdAtE-p9HjNd99h4-83" value="" style="edgeStyle=orthogonalEdgeStyle;rounded=1;orthogonalLoop=1;jettySize=auto;html=1;labelBackgroundColor=none;strokeColor=#A8201A;fontColor=default;" edge="1" parent="1" source="cjVjFdAtE-p9HjNd99h4-63" target="cjVjFdAtE-p9HjNd99h4-66">
          <mxGeometry relative="1" as="geometry" />
        </mxCell>
        <mxCell id="cjVjFdAtE-p9HjNd99h4-84" value="成功" style="edgeLabel;html=1;align=center;verticalAlign=middle;resizable=0;points=[];rounded=1;labelBackgroundColor=none;fontColor=#143642;" vertex="1" connectable="0" parent="cjVjFdAtE-p9HjNd99h4-83">
          <mxGeometry x="-0.16" y="2" relative="1" as="geometry">
            <mxPoint as="offset" />
          </mxGeometry>
        </mxCell>
        <mxCell id="cjVjFdAtE-p9HjNd99h4-63" value="报文发送至通道" style="rhombus;whiteSpace=wrap;html=1;strokeWidth=1;labelBackgroundColor=none;rounded=1;labelBorderColor=none;fillColor=#FAE5C7;strokeColor=#0F8B8D;fontColor=#143642;" vertex="1" parent="1">
          <mxGeometry x="450" y="1000" width="100" height="80" as="geometry" />
        </mxCell>
        <mxCell id="cjVjFdAtE-p9HjNd99h4-64" value="更新资金流水，状态&lt;br&gt;由组包中[05]&lt;br&gt;更新为失败[02]" style="whiteSpace=wrap;html=1;strokeWidth=1;labelBackgroundColor=none;rounded=1;labelBorderColor=none;fillColor=#FAE5C7;strokeColor=#0F8B8D;fontColor=#143642;" vertex="1" parent="1">
          <mxGeometry x="280" y="1080" width="120" height="60" as="geometry" />
        </mxCell>
        <mxCell id="cjVjFdAtE-p9HjNd99h4-65" value="" style="edgeStyle=orthogonalEdgeStyle;rounded=1;orthogonalLoop=1;jettySize=auto;html=1;labelBackgroundColor=none;fontColor=default;labelBorderColor=none;strokeColor=#A8201A;" edge="1" parent="1" source="cjVjFdAtE-p9HjNd99h4-66" target="cjVjFdAtE-p9HjNd99h4-70">
          <mxGeometry relative="1" as="geometry" />
        </mxCell>
        <mxCell id="cjVjFdAtE-p9HjNd99h4-67" value="释放任务锁&lt;br&gt;（包含异常情况）" style="whiteSpace=wrap;html=1;strokeWidth=1;labelBackgroundColor=none;rounded=1;labelBorderColor=none;fillColor=#FAE5C7;strokeColor=#0F8B8D;fontColor=#143642;" vertex="1" parent="1">
          <mxGeometry x="440" y="1310" width="120" height="60" as="geometry" />
        </mxCell>
        <mxCell id="cjVjFdAtE-p9HjNd99h4-68" value="" style="edgeStyle=orthogonalEdgeStyle;rounded=1;orthogonalLoop=1;jettySize=auto;html=1;labelBackgroundColor=none;fontColor=default;labelBorderColor=none;strokeColor=#A8201A;" edge="1" parent="1" source="cjVjFdAtE-p9HjNd99h4-70" target="cjVjFdAtE-p9HjNd99h4-71">
          <mxGeometry relative="1" as="geometry" />
        </mxCell>
        <mxCell id="cjVjFdAtE-p9HjNd99h4-69" value="" style="edgeStyle=orthogonalEdgeStyle;rounded=1;orthogonalLoop=1;jettySize=auto;html=1;labelBackgroundColor=none;fontColor=default;labelBorderColor=none;strokeColor=#A8201A;" edge="1" parent="1" source="cjVjFdAtE-p9HjNd99h4-70" target="cjVjFdAtE-p9HjNd99h4-67">
          <mxGeometry relative="1" as="geometry" />
        </mxCell>
        <mxCell id="cjVjFdAtE-p9HjNd99h4-70" value="登记批次查询定时任务表" style="whiteSpace=wrap;html=1;strokeWidth=1;labelBackgroundColor=none;rounded=1;labelBorderColor=none;fillColor=#FAE5C7;strokeColor=#0F8B8D;fontColor=#143642;" vertex="1" parent="1">
          <mxGeometry x="440" y="1220" width="120" height="60" as="geometry" />
        </mxCell>
        <mxCell id="cjVjFdAtE-p9HjNd99h4-71" value="批次查询任务" style="shape=process;whiteSpace=wrap;html=1;backgroundOutline=1;strokeWidth=1;labelBackgroundColor=none;rounded=1;labelBorderColor=none;fillColor=#FAE5C7;strokeColor=#0F8B8D;fontColor=#143642;" vertex="1" parent="1">
          <mxGeometry x="280" y="1220" width="120" height="60" as="geometry" />
        </mxCell>
        <mxCell id="cjVjFdAtE-p9HjNd99h4-72" value="" style="edgeStyle=orthogonalEdgeStyle;rounded=1;orthogonalLoop=1;jettySize=auto;html=1;endArrow=none;endFill=0;labelBackgroundColor=none;fontColor=default;labelBorderColor=none;strokeColor=#A8201A;" edge="1" parent="1" source="cjVjFdAtE-p9HjNd99h4-67" target="cjVjFdAtE-p9HjNd99h4-73">
          <mxGeometry relative="1" as="geometry">
            <mxPoint x="500" y="1430" as="sourcePoint" />
            <mxPoint x="500" y="1540" as="targetPoint" />
          </mxGeometry>
        </mxCell>
        <mxCell id="cjVjFdAtE-p9HjNd99h4-73" value="组包任务结束" style="strokeWidth=1;html=1;shape=mxgraph.flowchart.terminator;whiteSpace=wrap;labelBackgroundColor=none;rounded=1;labelBorderColor=none;fillColor=#FAE5C7;strokeColor=#0F8B8D;fontColor=#143642;" vertex="1" parent="1">
          <mxGeometry x="450" y="1400" width="100" height="60" as="geometry" />
        </mxCell>
        <mxCell id="cjVjFdAtE-p9HjNd99h4-74" value="组包任务流程" style="text;html=1;strokeColor=none;fillColor=none;align=center;verticalAlign=middle;whiteSpace=wrap;rounded=1;fontSize=20;labelBackgroundColor=none;labelBorderColor=none;fontColor=#143642;" vertex="1" parent="1">
          <mxGeometry x="410" y="10" width="180" height="30" as="geometry" />
        </mxCell>
        <mxCell id="cjVjFdAtE-p9HjNd99h4-66" value="更新资金流水，状态&lt;br&gt;由组包中[05]&lt;br&gt;更新为处理中[99]" style="whiteSpace=wrap;html=1;strokeWidth=1;labelBackgroundColor=none;rounded=1;labelBorderColor=none;fillColor=#FAE5C7;strokeColor=#0F8B8D;fontColor=#143642;" vertex="1" parent="1">
          <mxGeometry x="440" y="1130" width="120" height="60" as="geometry" />
        </mxCell>
      </root>
    </mxGraphModel>
  </diagram>
</mxfile>
